<svg width="207" height="74" viewBox="0 0 207 74" fill="none" xmlns="http://www.w3.org/2000/svg">
<path d="M2.82631 73.6652C1.12065 73.6652 0.267822 73.2189 0.267822 72.3262V45.1154C0.267822 44.6531 0.475052 44.3104 0.88951 44.0872C1.30397 43.8481 1.94957 43.7286 2.82631 43.7286H5.07395C6.42891 43.7286 7.31362 44.1191 7.72808 44.9002L14.8775 57.597L15.2362 58.2187L15.5948 57.4774L22.7921 44.9002C23.2225 44.1191 24.1151 43.7286 25.4701 43.7286H27.6938C29.3995 43.7286 30.2523 44.1908 30.2523 45.1154V72.3262C30.2523 73.2189 29.3995 73.6652 27.6938 73.6652H26.4505C24.7448 73.6652 23.892 73.2189 23.892 72.3262V54.7037L23.7246 54.6559L17.5555 65.6789C17.1889 66.2209 16.623 66.4919 15.8578 66.4919H14.6384C14.2399 66.4919 13.9051 66.4281 13.6341 66.3006C13.3631 66.1571 13.132 65.9499 12.9407 65.6789L6.74772 54.6559L6.58035 54.7037V72.3262C6.58035 73.2189 5.73549 73.6652 4.04577 73.6652H2.82631Z" fill="white"/>
<path d="M38.6451 73.6652C36.9394 73.6652 36.0866 73.2189 36.0866 72.3262V45.5219C36.0866 44.9321 36.2221 44.5096 36.4931 44.2546C36.7641 43.9836 37.1945 43.8481 37.7843 43.8481H46.727C49.3732 43.8481 51.7165 44.4937 53.7569 45.7849C55.7973 47.0761 56.8175 49.531 56.8175 53.1495C56.8175 55.6363 56.2277 57.5731 55.0481 58.9599C53.8685 60.3308 52.5374 61.2554 51.0549 61.7336C49.5884 62.2118 48.2813 62.4509 47.1335 62.4509H42.6382V72.3262C42.6382 73.2189 41.7854 73.6652 40.0798 73.6652H38.6451ZM46.4162 56.8318C47.4364 56.8318 48.3052 56.5608 49.0225 56.0188C49.7558 55.4769 50.1224 54.5204 50.1224 53.1495C50.1224 51.7627 49.7558 50.7903 49.0225 50.2324C48.2892 49.6744 47.4205 49.3955 46.4162 49.3955H42.6382V56.8318H46.4162Z" fill="white"/>
<path d="M68.1514 73.9522C66.9239 73.9522 65.5929 73.8326 64.1582 73.5935C62.7236 73.3544 61.4881 72.9718 60.452 72.4458C59.4318 71.9197 58.9217 71.2582 58.9217 70.4611C58.9217 70.1742 59.0333 69.7677 59.2564 69.2417C59.4796 68.7156 59.7506 68.2533 60.0694 67.8548C60.4042 67.4404 60.723 67.2331 61.0259 67.2331C61.2172 67.2331 61.5838 67.3686 62.1258 67.6396C62.8909 68.0222 63.6641 68.341 64.4452 68.5961C65.2422 68.8352 66.1508 68.9547 67.171 68.9547C68.4463 68.9547 69.4665 68.5961 70.2316 67.8787C70.9968 67.1455 71.3794 66.1253 71.3794 64.8181C71.3794 63.3835 70.9888 62.3075 70.2077 61.5901C69.4266 60.8569 68.1593 60.4902 66.4059 60.4902H65.2103C64.764 60.4902 64.4372 60.3228 64.23 59.9881C64.0387 59.6533 63.943 59.1193 63.943 58.386V57.597C63.943 56.8637 64.0387 56.3297 64.23 55.9949C64.4372 55.6442 64.764 55.4689 65.2103 55.4689H66.0233C67.3782 55.4689 68.4463 55.1501 69.2274 54.5124C70.0085 53.8748 70.399 53.022 70.399 51.954C70.399 50.8859 70.1041 50.049 69.5143 49.4433C68.9404 48.8216 68.0956 48.5108 66.9797 48.5108C66.0233 48.5108 65.2422 48.6064 64.6364 48.7977C64.0307 48.973 63.4329 49.2042 62.8431 49.4911C62.6678 49.5868 62.5004 49.6665 62.341 49.7302C62.1975 49.794 62.07 49.8259 61.9584 49.8259C61.6874 49.8259 61.3845 49.6426 61.0498 49.2759C60.715 48.8933 60.4281 48.447 60.189 47.9369C59.9499 47.4268 59.8303 46.9805 59.8303 46.5979C59.8303 45.9124 60.2129 45.3386 60.978 44.8763C61.7432 44.414 62.7475 44.0713 63.9908 43.8481C65.2502 43.609 66.6131 43.4894 68.0796 43.4894C69.8331 43.4894 71.3634 43.7923 72.6706 44.3981C73.9936 45.0038 75.0059 45.8726 75.7073 47.0044C76.4246 48.1202 76.7833 49.4353 76.7833 50.9497C76.7833 52.3844 76.4246 53.6516 75.7073 54.7516C75.0059 55.8355 74.0415 56.6326 72.814 57.1427V57.31C74.4559 57.9317 75.6913 58.9121 76.5202 60.2511C77.3492 61.5742 77.7636 63.1284 77.7636 64.9138C77.7636 66.7629 77.3571 68.3729 76.5442 69.7438C75.7312 71.0988 74.5994 72.1429 73.1488 72.8762C71.6982 73.5935 70.0324 73.9522 68.1514 73.9522Z" fill="white"/>
<path d="M99.4127 73.8326C98.2969 73.8326 97.2926 73.737 96.3999 73.5457C95.5232 73.3544 95.0848 73.0037 95.0848 72.4936C95.0848 72.382 95.1247 72.1269 95.2044 71.7284C95.2841 71.3299 95.3877 70.9633 95.5152 70.6285C95.6587 70.2938 95.834 70.1264 96.0412 70.1264C96.0731 70.1264 96.2485 70.1583 96.5673 70.222C96.9817 70.3177 97.3404 70.3974 97.6433 70.4611C97.9621 70.509 98.3208 70.5329 98.7193 70.5329C100.823 70.5329 102.338 70.1184 103.262 69.2895C104.203 68.4606 104.673 67.1295 104.673 65.2963V44.685C104.673 44.0474 105.239 43.7286 106.371 43.7286H106.706C107.853 43.7286 108.427 44.0474 108.427 44.685V64.8659C108.427 67.6874 107.702 69.8873 106.251 71.4654C104.817 73.0435 102.537 73.8326 99.4127 73.8326Z" fill="white"/>
<path d="M122.08 73.8326C119.912 73.8326 118.215 73.2268 116.987 72.0154C115.76 70.7879 115.146 69.0982 115.146 66.9462V52.217C115.146 51.5953 115.72 51.2845 116.868 51.2845H117.035C118.167 51.2845 118.733 51.5953 118.733 52.217V66.6115C118.733 67.9186 119.107 68.9388 119.857 69.6721C120.622 70.3894 121.69 70.7481 123.061 70.7481C124.017 70.7481 124.974 70.485 125.93 69.959C126.887 69.417 127.715 68.6837 128.417 67.7592V52.217C128.417 51.5953 128.983 51.2845 130.115 51.2845H130.282C131.43 51.2845 132.004 51.5953 132.004 52.217V67.3049C132.004 69.154 132.083 70.493 132.243 71.3219C132.402 72.1349 132.482 72.5813 132.482 72.661C132.482 73.0116 132.219 73.2667 131.693 73.4261C131.167 73.5696 130.672 73.6413 130.21 73.6413C129.812 73.6413 129.517 73.4181 129.325 72.9718C129.134 72.5095 128.991 72.0393 128.895 71.561C128.815 71.0828 128.76 70.7799 128.728 70.6524C127.835 71.6567 126.799 72.4378 125.619 72.9957C124.456 73.5536 123.276 73.8326 122.08 73.8326Z" fill="white"/>
<path d="M141.209 73.6652C140.077 73.6652 139.512 73.3544 139.512 72.7327V52.217C139.512 51.5953 140.077 51.2845 141.209 51.2845H141.377C142.524 51.2845 143.098 51.5953 143.098 52.217V72.7327C143.098 73.3544 142.524 73.6652 141.377 73.6652H141.209Z" fill="white"/>
<path d="M159.597 73.8326C156.074 73.8326 153.444 72.9319 151.706 71.1306C149.985 69.3134 149.124 66.3963 149.124 62.3792C149.124 58.3143 150.088 55.4211 152.017 53.6995C153.946 51.9779 156.345 51.1171 159.214 51.1171C160.282 51.1171 161.311 51.2127 162.299 51.404C163.287 51.5794 164.084 51.8185 164.69 52.1213C165.296 52.4242 165.599 52.743 165.599 53.0778C165.599 53.301 165.519 53.5959 165.359 53.9625C165.216 54.3291 165.033 54.6559 164.81 54.9428C164.602 55.2138 164.411 55.3493 164.236 55.3493C164.188 55.3493 164.116 55.3334 164.02 55.3015C163.925 55.2537 163.837 55.2138 163.757 55.182C162.323 54.5124 160.777 54.1777 159.119 54.1777C157.158 54.1777 155.644 54.8233 154.576 56.1145C153.508 57.3897 152.974 59.4461 152.974 62.2835C152.974 64.2921 153.189 65.918 153.619 67.1614C154.05 68.3888 154.743 69.2975 155.699 69.8873C156.672 70.4771 157.963 70.772 159.573 70.772C161.342 70.772 162.936 70.4053 164.355 69.6721C164.499 69.6402 164.602 69.6083 164.666 69.5764C164.746 69.5286 164.802 69.5047 164.833 69.5047C165.009 69.5047 165.208 69.6402 165.431 69.9112C165.654 70.1822 165.846 70.493 166.005 70.8437C166.18 71.1944 166.268 71.4734 166.268 71.6806C166.268 72.0154 165.965 72.3501 165.359 72.6849C164.754 73.0196 163.933 73.2986 162.897 73.5218C161.876 73.729 160.777 73.8326 159.597 73.8326Z" fill="white"/>
<path d="M180.304 73.8326C176.781 73.8326 174.159 72.916 172.437 71.0828C170.731 69.2337 169.879 66.4122 169.879 62.6183C169.879 58.8563 170.716 56.0029 172.389 54.0581C174.063 52.0974 176.526 51.1171 179.778 51.1171C182.679 51.1171 184.863 52.0576 186.329 53.9386C187.812 55.8196 188.553 58.5773 188.553 62.2118C188.553 62.3712 188.466 62.5944 188.29 62.8813C188.131 63.1523 187.932 63.3994 187.692 63.6226C187.469 63.8298 187.278 63.9334 187.119 63.9334H173.704C173.88 66.3086 174.486 68.0461 175.522 69.146C176.574 70.23 178.152 70.772 180.256 70.772C181.436 70.772 182.448 70.6285 183.293 70.3416C184.154 70.0546 184.982 69.704 185.78 69.2895C185.859 69.2576 185.979 69.2018 186.138 69.1221C186.298 69.0424 186.409 69.0026 186.473 69.0026C186.648 69.0026 186.848 69.146 187.071 69.433C187.31 69.704 187.509 70.0148 187.668 70.3655C187.844 70.7002 187.932 70.9473 187.932 71.1067C187.932 71.4574 187.581 71.848 186.879 72.2784C186.178 72.7088 185.238 73.0754 184.058 73.3783C182.894 73.6812 181.643 73.8326 180.304 73.8326ZM184.751 60.8728C184.751 56.4094 183.054 54.1777 179.658 54.1777C176.008 54.1777 174.023 56.4094 173.704 60.8728H184.751Z" fill="white"/>
<path d="M198.739 74C197.544 74 196.428 73.8485 195.392 73.5457C194.356 73.2428 193.527 72.8762 192.905 72.4458C192.299 71.9994 191.996 71.6089 191.996 71.2741C191.996 71.1147 192.076 70.8597 192.236 70.509C192.411 70.1583 192.61 69.8474 192.833 69.5764C193.072 69.2895 193.288 69.146 193.479 69.146C193.527 69.146 193.67 69.2257 193.909 69.3851C194.547 69.7996 195.216 70.1503 195.918 70.4372C196.635 70.7242 197.488 70.8676 198.476 70.8676C201.25 70.8676 202.637 69.7199 202.637 67.4244C202.637 66.7709 202.501 66.2209 202.23 65.7746C201.975 65.3282 201.537 64.9377 200.915 64.6029C200.309 64.2522 199.473 63.9175 198.405 63.5987C196.874 63.1523 195.679 62.6422 194.818 62.0683C193.973 61.4945 193.375 60.825 193.025 60.0598C192.674 59.2787 192.499 58.3382 192.499 57.2383C192.499 56.0587 192.793 54.9986 193.383 54.0581C193.989 53.1176 194.826 52.3844 195.894 51.8583C196.978 51.3323 198.197 51.0693 199.552 51.0693C200.493 51.0693 201.393 51.1569 202.254 51.3323C203.131 51.5076 203.832 51.7388 204.358 52.0257C204.9 52.2967 205.171 52.5836 205.171 52.8865C205.171 53.1097 205.092 53.4125 204.932 53.7951C204.789 54.1618 204.606 54.4885 204.382 54.7755C204.159 55.0465 203.96 55.182 203.785 55.182C203.753 55.182 203.553 55.0863 203.187 54.895C202.82 54.6878 202.35 54.5045 201.776 54.3451C201.218 54.1697 200.596 54.082 199.911 54.082C198.827 54.082 197.926 54.3291 197.209 54.8233C196.508 55.3015 196.157 55.9471 196.157 56.7601C196.157 57.7165 196.412 58.4817 196.922 59.0556C197.432 59.6294 198.277 60.0997 199.457 60.4663C201.274 61.0242 202.661 61.5822 203.617 62.1401C204.574 62.698 205.251 63.3835 205.65 64.1964C206.064 64.9935 206.271 66.0456 206.271 67.3527C206.271 68.5961 205.937 69.7279 205.267 70.7481C204.598 71.7523 203.689 72.5494 202.541 73.1392C201.393 73.713 200.126 74 198.739 74Z" fill="white"/>
<path d="M61.3611 31.4596C60.5798 31.4596 59.8976 30.7764 59.8976 29.9941V9.6707C59.8976 8.8883 60.5798 8.20514 61.3611 8.20514C62.1424 8.20514 62.8245 8.8883 62.8245 9.6707V29.9941C62.8245 30.7764 62.1424 31.4596 61.3611 31.4596Z" fill="white"/>
<path d="M168.463 31.4596C167.682 31.4596 167 30.7764 167 29.9941V9.6707C167 8.8883 167.682 8.20514 168.463 8.20514C169.245 8.20514 169.927 8.8883 169.927 9.6707V29.9941C169.927 30.7764 169.245 31.4596 168.463 31.4596Z" fill="white"/>
<path d="M38.0937 31.4596C37.3124 31.4596 36.6302 30.7764 36.6302 29.9941V9.6707C36.6302 8.8883 37.3124 8.20514 38.0937 8.20514C38.875 8.20514 39.5572 8.8883 39.5572 9.6707V29.9941C39.5572 30.7764 38.875 31.4596 38.0937 31.4596Z" fill="white"/>
<path d="M67.2149 31.4596C66.4337 31.4596 65.7515 30.7765 65.7515 29.9941V1.46556C65.7515 0.683164 66.4337 0 67.2149 0C67.9962 0 68.6784 0.683164 68.6784 1.46556V29.9941C68.6784 30.7765 67.9962 31.4596 67.2149 31.4596Z" fill="white"/>
<path d="M43.9476 31.4596C43.1663 31.4596 42.4841 30.7765 42.4841 29.9941V1.46556C42.4841 0.683164 43.1663 0 43.9476 0C44.7289 0 45.4111 0.683164 45.4111 1.46556V29.9941C45.4111 30.7765 44.7289 31.4596 43.9476 31.4596Z" fill="white"/>
<path d="M73.069 31.4596C72.2877 31.4596 71.6055 30.7765 71.6055 29.9941V21.8839C71.6055 21.1015 72.2877 20.4183 73.069 20.4183C73.8502 20.4183 74.5324 21.1015 74.5324 21.8839V29.9941C74.5324 30.7765 73.8502 31.4596 73.069 31.4596Z" fill="white"/>
<path d="M174.994 31.4596C174.212 31.4596 173.53 30.7765 173.53 29.9941V21.8839C173.53 21.1015 174.212 20.4183 174.994 20.4183C175.775 20.4183 176.457 21.1015 176.457 21.8839V29.9941C176.457 30.7765 175.775 31.4596 174.994 31.4596Z" fill="white"/>
<path d="M49.8016 31.4596C49.0203 31.4596 48.3381 30.7765 48.3381 29.9941V21.8839C48.3381 21.1015 49.0203 20.4183 49.8016 20.4183C50.5829 20.4183 51.2651 21.1015 51.2651 21.8839V29.9941C51.2651 30.7765 50.5829 31.4596 49.8016 31.4596Z" fill="white"/>
<path d="M32.155 31.4596C31.3737 31.4596 30.6915 30.7765 30.6915 29.9941V21.8839C30.6915 21.1015 31.3737 20.4183 32.155 20.4183C32.9363 20.4183 33.6185 21.1015 33.6185 21.8839V29.9941C33.6185 30.7765 32.9363 31.4596 32.155 31.4596Z" fill="white"/>
<path d="M84.7768 45.7263C83.9956 45.7263 83.3134 45.0432 83.3134 44.2608V29.9941C83.3134 29.2117 83.9956 28.5285 84.7768 28.5285C85.5581 28.5285 86.2403 29.2117 86.2403 29.9941V44.2608C86.2403 45.0393 85.5581 45.7263 84.7768 45.7263Z" fill="white"/>
<path d="M90.6307 59.9881C89.8494 59.9881 89.1672 59.305 89.1672 58.5226V29.9941C89.1672 29.2117 89.8494 28.5285 90.6307 28.5285C91.412 28.5285 92.0942 29.2117 92.0942 29.9941V58.5226C92.0942 59.305 91.412 59.9881 90.6307 59.9881Z" fill="white"/>
<path d="M96.4846 41.6189C95.7033 41.6189 95.0211 40.9357 95.0211 40.1533V29.9941C95.0211 29.2117 95.7033 28.5285 96.4846 28.5285C97.2659 28.5285 97.9481 29.2117 97.9481 29.9941V40.1533C97.9481 40.9357 97.2659 41.6189 96.4846 41.6189V41.6189Z" fill="white"/>
<path d="M108.192 31.4596C107.411 31.4596 106.729 30.7765 106.729 29.9941V1.46556C106.729 0.683164 107.411 0 108.192 0C108.974 0 109.656 0.683164 109.656 1.46556V29.9941C109.656 30.7765 108.974 31.4596 108.192 31.4596Z" fill="white"/>
<path d="M114.046 31.4596C113.265 31.4596 112.583 30.7765 112.583 29.9941V17.7811C112.583 16.9987 113.265 16.3156 114.046 16.3156C114.828 16.3156 115.51 16.9987 115.51 17.7811V29.9941C115.51 30.7765 114.828 31.4596 114.046 31.4596Z" fill="white"/>
<path d="M149.658 31.4596C148.877 31.4596 148.194 30.7765 148.194 29.9941V17.7811C148.194 16.9987 148.877 16.3156 149.658 16.3156C150.439 16.3156 151.121 16.9987 151.121 17.7811V29.9941C151.121 30.7765 150.439 31.4596 149.658 31.4596Z" fill="white"/>
<path d="M119.9 31.4596C119.119 31.4596 118.437 30.7765 118.437 29.9941V11.6248C118.437 10.8424 119.119 10.1592 119.9 10.1592C120.682 10.1592 121.364 10.8424 121.364 11.6248V29.9941C121.364 30.7765 120.682 31.4596 119.9 31.4596Z" fill="white"/>
<path d="M155.512 31.4596C154.731 31.4596 154.048 30.7765 154.048 29.9941V11.6248C154.048 10.8424 154.731 10.1592 155.512 10.1592C156.293 10.1592 156.975 10.8424 156.975 11.6248V29.9941C156.975 30.7765 156.293 31.4596 155.512 31.4596Z" fill="white"/>
<path d="M125.754 31.4596C124.973 31.4596 124.291 30.7765 124.291 29.9941V21.8839C124.291 21.1015 124.973 20.4183 125.754 20.4183C126.536 20.4183 127.218 21.1015 127.218 21.8839V29.9941C127.218 30.7765 126.536 31.4596 125.754 31.4596Z" fill="white"/>
<path d="M137.462 35.5622C136.681 35.5622 135.999 34.879 135.999 34.0967V29.9939C135.999 29.2115 136.681 28.5283 137.462 28.5283C138.243 28.5283 138.926 29.2115 138.926 29.9939V34.0967C138.926 34.879 138.243 35.5622 137.462 35.5622Z" fill="white"/>
<path d="M161.463 35.5622C160.682 35.5622 160 34.879 160 34.0967V29.9939C160 29.2115 160.682 28.5283 161.463 28.5283C162.245 28.5283 162.927 29.2115 162.927 29.9939V34.0967C162.927 34.879 162.245 35.5622 161.463 35.5622Z" fill="white"/>
<path d="M56.9707 29.9941C56.9707 31.9481 54.0437 31.9481 54.0437 29.9941C54.0437 28.04 56.9707 28.04 56.9707 29.9941Z" fill="white"/>
<path d="M27.6797 29.9941C27.6797 31.9481 24.7527 31.9481 24.7527 29.9941C24.7527 28.04 27.6797 28.04 27.6797 29.9941Z" fill="white"/>
<path d="M80.3863 29.9941C80.3863 31.9481 77.4594 31.9481 77.4594 29.9941C77.4594 28.04 80.3863 28.04 80.3863 29.9941Z" fill="white"/>
<path d="M103.802 29.9941C103.802 31.9481 100.875 31.9481 100.875 29.9941C100.875 28.04 103.802 28.04 103.802 29.9941Z" fill="white"/>
<path d="M133.072 29.9941C133.072 31.9481 130.145 31.9481 130.145 29.9941C130.145 28.04 133.072 28.04 133.072 29.9941Z" fill="white"/>
<path d="M144.78 29.9941C144.78 31.9481 141.853 31.9481 141.853 29.9941C141.853 28.04 144.78 28.04 144.78 29.9941Z" fill="white"/>
<path d="M181.888 29.9941C181.888 31.9481 178.961 31.9481 178.961 29.9941C178.961 28.04 181.888 28.04 181.888 29.9941Z" fill="white"/>
</svg>
